<svg xmlns="http://www.w3.org/2000/svg" width="160" height="111" viewBox="0 0 120 172" fill="none">


<path d="M171.414 73.5246C171.414 120.029 124.919 143.412 74.273 143.412C63.196 143.412 53.7829 142.65 45.2672 141.033L44.2296 142.594C29.2826 164.88 20.1499 169.285 10.1853 169.285C-3.37822 169.285 -15.8293 157.733 2.98755 129.936L29.5537 90.8663C49.4829 61.7032 73.2822 53.9989 87.3972 53.9989C97.3618 53.9989 99.5772 59.5006 93.2114 69.1287L65.9536 110.011C67.7951 110.095 69.7113 110.132 71.7865 110.132C101.952 110.132 128.247 97.1952 128.247 74.9093C128.247 55.3743 105.55 43.5437 72.8989 43.5437C27.2355 43.5437 -10.1553 68.0321 -10.1553 85.9221C-10.1553 95.0019 -0.901085 96.6562 -0.901085 105.457C-0.901085 112.613 -7.77163 121.962 -23.1018 121.962C-42.6759 121.953 -58.0061 108.747 -58.0061 87.8273C-58.0061 42.4284 6.48359 9.68735 72.8896 9.68735C132.117 9.68735 171.414 34.4546 171.414 73.5246Z" fill="#F9593B"/></svg>