<svg xmlns="http://www.w3.org/2000/svg" width="640" height="640" viewBox="0 0 640 640">
  <defs>
    <linearGradient id="g" x1="0" y1="0" x2="1" y2="1">
      <stop offset="0%" stop-color="#16111f"/>
      <stop offset="100%" stop-color="#2c2142"/>
    </linearGradient>
  </defs>
  <rect width="640" height="640" rx="48" fill="url(#g)"/>
  <circle cx="198" cy="451" r="88" fill="#c3a6ff" fill-opacity="0.18" /><circle cx="521" cy="124" r="51" fill="#ffb4d9" fill-opacity="0.18" /><circle cx="205" cy="451" r="127" fill="#8de7c1" fill-opacity="0.18" /><circle cx="95" cy="282" r="118" fill="#c3a6ff" fill-opacity="0.18" />
  <rect x="40" y="274" width="68" height="346" rx="20" fill="#c3a6ff" fill-opacity="0.82" /><rect x="150" y="296" width="68" height="324" rx="20" fill="#ffb4d9" fill-opacity="0.82" /><rect x="260" y="270" width="68" height="350" rx="20" fill="#8de7c1" fill-opacity="0.82" /><rect x="370" y="389" width="68" height="231" rx="20" fill="#c3a6ff" fill-opacity="0.82" /><rect x="480" y="295" width="68" height="325" rx="20" fill="#ffb4d9" fill-opacity="0.82" />
  <path d="M196 153 L256 223" stroke="#8de7c1" stroke-width="10" stroke-linecap="round" opacity="0.65" /><path d="M281 134 L449 166" stroke="#c3a6ff" stroke-width="10" stroke-linecap="round" opacity="0.65" /><path d="M329 79 L388 185" stroke="#ffb4d9" stroke-width="10" stroke-linecap="round" opacity="0.65" /><path d="M158 587 L199 630" stroke="#8de7c1" stroke-width="10" stroke-linecap="round" opacity="0.65" /><path d="M506 50 L640 134" stroke="#c3a6ff" stroke-width="10" stroke-linecap="round" opacity="0.65" /><path d="M133 516 L218 621" stroke="#ffb4d9" stroke-width="10" stroke-linecap="round" opacity="0.65" />
  <text x="48" y="86" fill="rgba(255,255,255,0.88)" font-size="28" font-family="Georgia, serif">Opal Lantern</text>
</svg>
