<svg xmlns="http://www.w3.org/2000/svg" viewBox="0 0 960 600" role="img" aria-labelledby="title desc">
  <title id="title">Hearth saturation plugin preview</title>
  <desc id="desc">A formal black and red technical preview with a signal path, transfer curve, and harmonic bars.</desc>
  <rect width="960" height="600" fill="#0b0b0c"/>
  <rect x="54" y="48" width="852" height="504" fill="#f3f0ea"/>
  <rect x="54" y="48" width="852" height="54" fill="#7f1018"/>
  <text x="86" y="84" fill="#fff8f2" font-family="Georgia, serif" font-size="28" font-weight="700">HEARTH</text>
  <text x="724" y="82" fill="#fff8f2" font-family="IBM Plex Mono, monospace" font-size="14">MAX FOR LIVE DSP</text>
  <g fill="none" stroke="#1b1b1d" stroke-width="3">
    <path d="M116 282 H804"/>
    <path d="M116 282 V156"/>
  </g>
  <path d="M128 272 C220 272 246 208 318 214 C396 220 410 334 494 290 C574 248 602 172 790 170" fill="none" stroke="#7f1018" stroke-width="9" stroke-linecap="round"/>
  <path d="M128 272 C220 272 246 208 318 214 C396 220 410 334 494 290 C574 248 602 172 790 170" fill="none" stroke="#171717" stroke-width="2" stroke-linecap="round"/>
  <g font-family="IBM Plex Mono, monospace" font-size="16" fill="#171717">
    <text x="116" y="322">input</text>
    <text x="742" y="322">output</text>
    <text x="88" y="152">drive</text>
  </g>
  <g fill="#171717">
    <rect x="128" y="402" width="58" height="62"/>
    <rect x="216" y="372" width="58" height="92"/>
    <rect x="304" y="348" width="58" height="116"/>
    <rect x="392" y="386" width="58" height="78"/>
    <rect x="480" y="416" width="58" height="48"/>
  </g>
  <g fill="#7f1018" font-family="Georgia, serif" font-size="22" font-weight="700">
    <text x="622" y="396">Tube</text>
    <text x="622" y="426">Flux</text>
    <text x="622" y="456">Bloom</text>
  </g>
  <g stroke="#7f1018" stroke-width="4">
    <path d="M596 388 H606"/>
    <path d="M596 418 H606"/>
    <path d="M596 448 H606"/>
  </g>
</svg>
